<?xml version="1.0" encoding="UTF-8"?>
<svg width="20px" height="15px" viewBox="0 0 20 15" version="1.1" xmlns="http://www.w3.org/2000/svg" xmlns:xlink="http://www.w3.org/1999/xlink">
    <title>Account-Help-Email-Icon</title>
    <g id="Page-1" stroke="none" stroke-width="1" fill="none" fill-rule="evenodd">
        <g id="ContactUs" transform="translate(-208.000000, -1074.000000)" fill="#041E3A" fill-rule="nonzero">
            <g id="Left-Rail" transform="translate(208.000000, 705.000000)">
                <g id="Account-Help-Email-Icon" transform="translate(0.000000, 369.000000)">
                    <path d="M19.9772985,1.708268 C19.9772985,0.772231 19.2281498,0 18.3200908,0 L1.65720772,0 C0.74914869,0 0,0.772231 0,1.708268 L0,13.291732 C0,14.227769 0.74914869,15 1.65720772,15 L18.3427923,15 C19.2508513,15 20,14.227769 20,13.291732 L20,1.708268 L19.9772985,1.708268 Z M1.92273714,1 L18.056141,1 C18.582946,1 19,1.351648 19,1.879121 L19,2.164835 L10.0004142,7 L1.00082835,2.164835 L1.00082835,1.879121 C0.97887814,1.351648 1.39593212,1 1.92273714,1 Z M18.0560976,14 L1.94390244,14 C1.41707317,14 1,13.643002 1,13.107505 L1,3.218809 L9.8463415,8.038282 C9.8902439,8.060594 9.9560976,8.082906 10,8.082906 C10.0439024,8.082906 10.1097561,8.060594 10.1536585,8.038282 L19,3.218809 L19,13.107505 C19,13.643002 18.5829268,14 18.0560976,14 Z" id="Shape"></path>
                </g>
            </g>
        </g>
    </g>
</svg>