<?xml version="1.0" encoding="UTF-8"?>
<svg width="17px" height="25px" viewBox="0 0 17 25" version="1.1" xmlns="http://www.w3.org/2000/svg" xmlns:xlink="http://www.w3.org/1999/xlink">
    <title>Account-Help-Phone-Icon</title>
    <g id="Page-1" stroke="none" stroke-width="1" fill="none" fill-rule="evenodd">
        <g id="ContactUs" transform="translate(-207.000000, -808.000000)" stroke="#041E3A">
            <g id="Left-Rail" transform="translate(208.000000, 705.000000)">
                <g id="Account-Help-Phone-Icon" transform="translate(0.000000, 104.000000)">
                    <path d="M4.20608941,0 C2.25861693,0.905525 1.07116356,1.760999 0.64372932,2.566421 C-0.33243155,4.405819 -0.03934466,7.535566 0.4798959,9.41778 C1.41701042,12.814761 3.18354145,16.172005 5.31384889,18.826611 C7.4441563,21.481217 9.629828,22.791735 11.3000492,22.956348 C12.41353,23.06609 13.7346958,22.642022 15.2635467,21.684146 L11.9162251,15.043778 C11.0083872,15.784892 9.9880157,16.082546 8.8551105,15.936741 C7.1557528,15.718034 4.92673529,10.520935 4.92673529,8.968381 C4.92673529,7.933345 5.82841465,7.11791 7.6317734,6.522075 L4.20608941,0 Z" id="Phone"></path>
                </g>
            </g>
        </g>
    </g>
</svg>