<?xml version="1.0" encoding="UTF-8"?>
<svg width="22px" height="19px" viewBox="0 0 22 19" version="1.1" xmlns="http://www.w3.org/2000/svg" xmlns:xlink="http://www.w3.org/1999/xlink">
    <title>chat icon</title>
    <g id="Page-1" stroke="none" stroke-width="1" fill="none" fill-rule="evenodd">
        <g id="ContactUs" transform="translate(-207.000000, -957.000000)" stroke="#041E3A" stroke-width="0.85">
            <g id="Left-Rail" transform="translate(208.000000, 705.000000)">
                <path d="M12.9652043,267.007906 C16.8503776,267.007906 20,263.872093 20,260.003953 C20,256.135752 16.8503776,253 12.9652043,253 L7.03479568,253.000795 C3.14956097,253.000795 0,256.136548 0,260.004748 C0,263.872888 3.14956097,267.008702 7.03479568,267.008702 C8.85074342,267.008524 9.98493346,267.008405 10.4373658,267.008344 C10.4373658,267.779021 10.4373658,269.341811 10.4373658,270 C11.7937121,269.48369 12.6363249,268.486325 12.9652043,267.007906 Z M4.66666667,258.44 L14.6666667,258.44 M4.66666667,261.84 L14.6666667,261.84" id="chat-icon"></path>
            </g>
        </g>
    </g>
</svg>