<?xml version="1.0" encoding="UTF-8"?>
<svg width="24px" height="30px" viewBox="0 0 24 30" version="1.1" xmlns="http://www.w3.org/2000/svg" xmlns:xlink="http://www.w3.org/1999/xlink">
    <title>Text-Icon</title>
    <g id="Page-1" stroke="none" stroke-width="1" fill="none" fill-rule="evenodd">
        <g id="ContactUs" transform="translate(-207.000000, -1008.000000)">
            <g id="Left-Rail" transform="translate(208.000000, 705.000000)">
                <g id="Text-Icon" transform="translate(0.000000, 304.000000)">
                    <path d="M16.5,17.4672445 L16.5,26.4 C16.5,27.0075132 16.0075132,27.5 15.4,27.5 L1.1,27.5 C0.492486775,27.5 0,27.0075132 0,26.4 L0,1.1 C0,0.492486775 0.492486775,0 1.1,0 L15.4,0 C16.0075132,0 16.5,0.492486775 16.5,1.1 L16.5,5.76497396 L16.5,5.76497396" id="Path" stroke="#041E3A" stroke-width="0.85"></path>
                    <path d="M20.6008772,5.5 C20.9395941,5.5 21.2640829,5.61844981 21.4873904,5.85128894 C21.7106978,6.08413016 21.8166667,6.4113087 21.8166667,6.74902837 L21.8166667,6.74902837 L21.8166667,16.3249169 C21.8166667,16.6626283 21.704366,16.9833573 21.4810581,17.2161569 C21.2577503,17.4489565 20.9395333,17.5739515 20.6008772,17.5739515 L20.6008772,17.5739515 L12.4512884,17.5739515 L9.12686403,20.7875891 C9.01298813,20.8983073 8.83369748,20.9313563 8.68945115,20.8682552 C8.54520482,20.8051334 8.44417798,20.6493994 8.44298245,20.4883378 L8.44298245,20.4883378 L8.44298245,17.5739515 L8.44298245,17.5739515 L7.62612391,17.5739515 C7.29255585,17.5660847 6.97547548,17.4464383 6.75227522,17.2161569 C6.52907495,16.9858756 6.41666667,16.6626908 6.41666667,16.3249169 L6.41666667,16.3249169 L6.41666667,6.74902837 C6.41666667,6.4113087 6.52896884,6.08410103 6.75227522,5.85128894 C6.9755816,5.61847894 7.29379738,5.5 7.63245614,5.5 L7.63245614,5.5 Z M20.6008772,6.33268626 L7.63245614,6.33268626 C7.46600382,6.33268626 7.38418788,6.37872384 7.32850877,6.43677181 C7.27282967,6.49481979 7.22719298,6.58481787 7.22719298,6.74902837 L7.22719298,6.74902837 L7.22719298,16.3249169 C7.22719298,16.4890796 7.26634302,16.573034 7.32217653,16.6306616 C7.37700905,16.6872278 7.46704474,16.7356357 7.63245614,16.7412549 L7.63245614,16.7412549 L8.84824562,16.7412549 C9.06043512,16.7412757 9.2534875,16.9396111 9.25350877,17.1575928 L9.25350877,17.1575928 L9.25350877,19.519054 L12.014364,16.8518482 C12.0892447,16.7807555 12.1910197,16.7412549 12.2929825,16.7412549 L12.2929825,16.7412549 L20.6008772,16.7412549 C20.7673324,16.7412549 20.8491472,16.6952194 20.9048246,16.6371756 C20.9605018,16.5791318 21.0061404,16.4891421 21.0061404,16.3249169 L21.0061404,16.3249169 L21.0061404,6.74902837 C21.0061404,6.58481787 20.9605023,6.49482603 20.9048246,6.43677181 C20.8491469,6.3787176 20.7672716,6.33268626 20.6008772,6.33268626 L20.6008772,6.33268626 Z" id="Combined-Shape" fill="#041E3A"></path>
                    <line x1="0.916666667" y1="22.4583333" x2="15.5833333" y2="22.4583333" id="Line" stroke="#041E3A" stroke-width="0.55" stroke-linecap="square"></line>
                    <circle id="Oval" fill="#041E3A" cx="11" cy="11.4583333" r="1"></circle>
                    <circle id="Oval-Copy" fill="#041E3A" cx="14.2083333" cy="11.4583333" r="1"></circle>
                    <circle id="Oval-Copy-3" fill="#041E3A" cx="8.25" cy="24.2916667" r="1"></circle>
                    <circle id="Oval-Copy-2" fill="#041E3A" cx="17.4166667" cy="11.4583333" r="1"></circle>
                </g>
            </g>
        </g>
    </g>
</svg>